Coordinates
version=1
nRows=13
nColumns=40
inDegrees=yes

Units are S.I. units (second, meters, Newtons, ...)
Angles are in degrees.

endheader
time	pelvis_tilt	pelvis_list	pelvis_rotation	pelvis_tx	pelvis_ty	pelvis_tz	hip_flexion_r	hip_adduction_r	hip_rotation_r	knee_angle_r	knee_angle_r_beta	ankle_angle_r	subtalar_angle_r	mtp_angle_r	hip_flexion_l	hip_adduction_l	hip_rotation_l	knee_angle_l	knee_angle_l_beta	ankle_angle_l	subtalar_angle_l	mtp_angle_l	lumbar_extension	lumbar_bending	lumbar_rotation	arm_flex_r	arm_add_r	arm_rot_r	elbow_flex_r	pro_sup_r	wrist_flex_r	wrist_dev_r	arm_flex_l	arm_add_l	arm_rot_l	elbow_flex_l	pro_sup_l	wrist_flex_l	wrist_dev_l
      9.67000000	     -5.21488164	     -4.86155192	      6.23338603	      0.67203514	      0.91960021	      0.49968502	     -0.23773781	      4.53167894	    -17.59388384	     12.48758664	     12.48758664	     17.96741556	      7.14691010	     -3.13147937	     33.23133152	     -6.52021010	     -4.08113798	     16.08018314	     16.08018314	      6.20690210	     -2.23422828	      8.70360885	     -9.19923296	      8.10609246	      3.53067689	     38.42785789	    -18.95283468	     -9.00201614	     80.93702229	     45.04242675	      0.00000000	      0.00000000	    -12.59325298	     -7.16313467	      2.54003354	     35.26684508	     44.93233992	      0.00000000	      0.00000000
      9.68385714	     -5.29787707	     -4.77636775	      5.88601786	      0.67363318	      0.91873692	      0.49815437	     -0.76670909	      4.32437396	    -17.29316115	     12.51250942	     12.51250942	     18.25513680	      7.36272768	     -3.21784126	     32.97132881	     -6.34587245	     -3.96210420	     16.75353919	     16.75353919	      5.63971241	     -2.46076783	      8.64558767	     -9.05715475	      8.00037916	      3.60238735	     37.75442597	    -18.60881923	     -8.74417878	     80.53528804	     45.04493345	      0.00000000	      0.00000000	    -12.34069770	     -7.27060516	      2.53053100	     35.49224258	     44.93969465	      0.00000000	      0.00000000
      9.69771429	     -5.39602692	     -4.78196465	      5.53420358	      0.67543430	      0.91762334	      0.49626447	     -1.28846068	      4.11910173	    -17.43523580	     12.56741000	     12.56741000	     18.64612203	      8.30775948	     -3.14494042	     32.65849598	     -6.09646144	     -3.12674019	     17.32689389	     17.32689389	      4.01452883	     -3.81973394	      6.25364445	     -8.80786896	      8.00324789	      3.24593538	     37.88960507	    -18.41954939	     -7.36215364	     77.82412181	     45.10875845	      0.00000000	      0.00000000	    -12.97900135	     -7.59863384	      2.70396401	     37.48083959	     44.96805295	      0.00000000	      0.00000000
      9.71157143	     -5.50255725	     -4.70289912	      5.11749597	      0.67744617	      0.91672148	      0.49437936	     -1.78835195	      3.85984202	    -17.10652533	     12.63266505	     12.63266505	     18.85848285	      8.53788432	     -3.20390691	     32.34787569	     -5.90315409	     -2.84437400	     18.07926113	     18.07926113	      3.56124082	     -4.03443731	      6.22971894	     -8.63886438	      7.92652438	      3.41695385	     36.93356230	    -18.30038138	     -7.18693827	     77.22816261	     45.11939309	      0.00000000	      0.00000000	    -12.66091140	     -7.71719291	      2.63065711	     37.70615319	     44.98471062	      0.00000000	      0.00000000
      9.72542857	     -5.64233668	     -4.65189103	      4.68644063	      0.67957287	      0.91576705	      0.49239299	     -2.21749805	      3.59080228	    -16.84435698	     12.77926192	     12.77926192	     19.11871650	      8.86947831	     -3.27633415	     32.13460660	     -5.70938332	     -2.41454946	     18.91468243	     18.91468243	      3.12698464	     -4.56099433	      6.12112254	     -8.42289301	      7.82512623	      3.72960359	     35.86115395	    -18.57660236	     -7.05841233	     76.13850605	     45.14813129	      0.00000000	      0.00000000	    -12.29849025	     -7.87682019	      2.50669523	     38.11313994	     45.00960699	      0.00000000	      0.00000000
      9.73928571	     -5.85407138	     -4.52072566	      4.24614824	      0.68168105	      0.91486257	      0.49003481	     -2.37589073	      3.08141678	    -16.93040553	     13.34193039	     13.34193039	     19.56290441	      9.63997467	     -3.07320218	     31.78550023	     -5.27618031	     -1.50772768	     19.28906729	     19.28906729	      2.05829192	     -6.18680211	      5.03892068	     -8.07820349	      7.64751506	      3.69727579	     35.55833440	    -18.78305360	     -6.37152052	     72.96149461	     45.23936200	      0.00000000	      0.00000000	    -12.42867941	     -8.10919250	      2.28167957	     39.50148083	     45.08214028	      0.00000000	      0.00000000
      9.75314286	     -6.02217936	     -4.41829544	      3.77804796	      0.68391466	      0.91422011	      0.48776562	     -2.54273609	      2.65562465	    -16.55373677	     13.92442584	     13.92442584	     19.82614181	      9.73932708	     -3.19974594	     31.56295418	     -5.06066603	     -1.24287746	     19.97987865	     19.97987865	      1.82828718	     -6.78601597	      4.75039745	     -7.87480955	      7.50551706	      4.00136398	     34.35119116	    -19.18710596	     -6.22803321	     71.43073277	     45.28279564	      0.00000000	      0.00000000	    -11.95582515	     -8.25912189	      2.07714017	     40.01323630	     45.12485637	      0.00000000	      0.00000000
      9.76700000	     -6.16353539	     -4.25443845	      3.31452541	      0.68620832	      0.91391437	      0.48531801	     -2.56702605	      2.09344748	    -16.24767714	     14.82039988	     14.82039988	     19.90383761	      9.74532658	     -3.38412173	     31.29334958	     -4.77292972	     -0.94188192	     20.61221282	     20.61221282	      1.76635957	     -7.61557214	      4.43967053	     -7.68844522	      7.28095940	      4.24667919	     33.17679922	    -19.46600432	     -6.11521980	     69.67781165	     45.33408010	      0.00000000	      0.00000000	    -11.50725588	     -8.41994669	      1.91901866	     40.49700276	     45.15983546	      0.00000000	      0.00000000
      9.78085714	     -6.28174039	     -4.05965670	      2.86865342	      0.68846583	      0.91391721	      0.48275458	     -2.45407076	      1.44996917	    -15.87908609	     15.99250092	     15.99250092	     19.97629762	      9.62708945	     -3.73355645	     30.98944140	     -4.46909007	     -0.73862523	     21.17718958	     21.17718958	      1.81332164	     -8.50782279	      4.12958551	     -7.57084541	      7.04651652	      4.34863347	     31.97203861	    -19.69794050	     -6.05211145	     67.71884929	     45.39342317	      0.00000000	      0.00000000	    -11.04048762	     -8.61375191	      1.78557249	     40.95397529	     45.19139869	      0.00000000	      0.00000000
      9.79471429	     -6.36541746	     -3.84642314	      2.45056234	      0.69077479	      0.91426880	      0.48009604	     -2.19231411	      0.74201156	    -15.48686044	     17.47813463	     17.47813463	     19.87165139	      9.32988017	     -4.33358664	     30.62246233	     -4.14811979	     -0.57355965	     21.66929206	     21.66929206	      1.98748424	     -9.47301831	      3.80851092	     -7.46839889	      6.76669142	      4.32222087	     30.79363807	    -19.80799332	     -6.03585326	     65.38438965	     45.46680213	      0.00000000	      0.00000000	    -10.58288091	     -8.84183924	      1.67429809	     41.40066892	     45.22254256	      0.00000000	      0.00000000
      9.80857143	     -6.31322369	     -3.63306624	      2.06947589	      0.69316779	      0.91503930	      0.47737518	     -1.90974076	     -0.00257836	    -15.07195966	     19.24994116	     19.24994116	     19.63190718	      8.87916627	     -5.00689261	     30.13275026	     -3.86781088	     -0.60819282	     22.20411205	     22.20411205	      2.42061486	    -10.23296741	      3.53298955	     -7.53111473	      6.52444083	      4.26882580	     29.46283285	    -19.93655804	     -6.04556600	     63.52305882	     45.52420286	      0.00000000	      0.00000000	    -10.05716744	     -9.09661615	      1.55503392	     41.77567916	     45.25006875	      0.00000000	      0.00000000
      9.82242857	     -6.34406289	     -3.47056164	      1.70175492	      0.69540094	      0.91599021	      0.47458090	     -1.29909109	     -0.70344017	    -14.43317274	     21.29249572	     21.29249572	     18.44137260	      7.79318925	     -7.84608950	     29.60869544	     -3.54030470	     -0.28546742	     22.46421513	     22.46421513	      2.76817313	    -11.40288934	      3.51505536	     -7.42313561	      6.33454808	      3.86312696	     29.05757519	    -19.40601899	     -6.46911448	     58.87564349	     45.69128006	      0.00000000	      0.00000000	     -9.80064609	     -9.35919698	      1.59409217	     42.38380806	     45.28710840	      0.00000000	      0.00000000
      9.83628571	     -6.24165708	     -3.25389557	      1.35699934	      0.69774421	      0.91716261	      0.47179688	     -0.53607502	     -1.57140823	    -13.95123240	     23.96132870	     23.96132870	     17.80361975	      7.03976887	     -8.89650188	     28.99760804	     -3.29617200	     -0.59635047	     22.86083731	     22.86083731	      3.39917550	    -11.76693794	      3.28655912	     -7.58689127	      6.07838518	      3.71700464	     27.39511110	    -19.62193798	     -6.48359693	     57.43646736	     45.73171687	      0.00000000	      0.00000000	     -9.22933059	     -9.66656128	      1.39134957	     42.82107401	     45.32465377	      0.00000000	      0.00000000
